<svg xmlns="http://www.w3.org/2000/svg" height="1024" preserveAspectRatio="none" style="display: block;" version="1.1" viewBox="0 0 2048 2048" width="1024">
<path d="M 0 0 L 469.454 0 L 1571.65 0 L 2048 0 L 2048 465.213 L 2048 1576.68 L 2048 2048 L 1581.87 2048 L 463.426 2048 L 0 2048 L 0 1586.92 L 0 459.534 L 0 0 z" fill="rgb(27,27,31)" transform="translate(0,0)"></path>
<path d="M 792.893 386.114 C 832.148 402.926 871.222 427.177 910.405 444.775 C 931.881 454.42 947.565 475.74 963.716 492.584 C 988.825 492.92 1011.75 493.323 1036.82 496.381 C 1136.64 507.742 1229.43 553.369 1299.37 625.484 C 1380.59 710.4 1425.01 823.931 1423 941.414 C 1421.91 1013.26 1402.78 1079.2 1371.69 1143.49 C 1366.03 1155.21 1353.55 1180.49 1346.65 1190.72 L 1347.64 1192.53 C 1403.82 1101.41 1439.11 1017.22 1438.72 909.591 C 1437.89 681.05 1261.59 498.848 1039.11 468.294 C 1017.39 465.311 991.863 459.963 970.014 460.131 C 970.86 459.583 972.404 458.633 973.223 457.982 L 974.167 457.918 C 986.845 456.976 1000.46 454.04 1013.13 452.885 C 1030.15 451.333 1048.21 450.349 1065.29 450.111 C 1176.84 447.985 1285.21 487.376 1369.35 560.641 C 1458.77 638.068 1514.3 747.435 1524.05 865.31 C 1531.8 964.281 1499.89 1044.6 1456.7 1131.26 C 1423.06 1198.75 1374.93 1274.59 1372.1 1351.27 C 1371.97 1363.03 1393.05 1396.64 1403.79 1405.12 C 1426.3 1422.88 1445.39 1426.14 1472.72 1428.32 C 1443.06 1452.08 1408.8 1466.98 1370.34 1468.12 C 1366.52 1468.77 1356.11 1468.03 1355.3 1470.63 C 1393.63 1475.61 1400.63 1489.4 1409.64 1524.34 C 1497.68 1532.61 1490.7 1589.03 1490.63 1657.95 L 737.009 1657.95 C 736.916 1620.99 730.901 1576.23 757.149 1549.13 C 774.709 1530.99 791.439 1526.06 815.793 1525.01 C 817.42 1508.38 819.924 1484.57 840.617 1480.75 C 895.212 1470.68 951.913 1469.63 1007.32 1467.09 C 1007.12 1465.42 1007.23 1462.62 1007.23 1460.84 C 953.429 1458.95 899.089 1459.14 845.275 1456.85 C 841.288 1456.68 833.555 1453.97 830.129 1451.84 C 772.115 1415.77 749.561 1330.59 772.053 1267.96 C 777.072 1254 785.588 1240.63 793.7 1228.47 C 847.629 1147.67 924.655 1086.01 995.086 1020.43 C 1027.42 990.317 1059.09 963.18 1080.48 923.733 C 1106.48 875.799 1112.92 828.518 1097.16 776.091 L 1095.54 778.562 C 1110.14 859.509 1035.64 949.872 956.487 961.28 C 917.226 966.939 893.63 963.197 861.149 941.367 C 846.124 950.134 830.623 958.057 814.718 965.1 C 797.623 972.631 767.173 983.254 753.329 993.621 C 731.607 1009.89 747.992 1066.31 708.887 1068.55 C 683.237 1070.02 656.442 1074.35 630.886 1074.61 C 628.308 1074.64 625.108 1070.9 623.956 1068.76 C 623.179 1062.97 628.109 1057.12 631.636 1052.48 C 640.121 1041.44 648.773 1030.53 657.588 1019.75 C 647.417 1024.41 625.82 1033.38 617.988 1040.16 C 612.544 1044.87 609.076 1052.54 600.96 1059.01 C 556.694 1048.24 568.672 1023.77 554.608 987.823 C 546.546 966.346 516.558 946.129 525.459 920.66 C 535.908 890.758 569.891 872.971 591.702 849.11 C 635.86 800.803 677.134 743.094 722.828 696.779 C 724.994 644.436 759.787 619.27 795.079 585.077 C 810.297 570.334 832.842 552.313 850.417 540.707 C 833.761 489.533 809.839 436.688 792.893 386.114 z" fill="rgb(127,176,105)" transform="translate(0,0)"></path>
<path d="M 1007.23 1460.84 C 1039.93 1461.59 1072.63 1462.11 1105.33 1462.39 C 1119.05 1462.56 1138.96 1463.58 1152.21 1462.97 L 1154 1465.08 C 1105.1 1464.87 1056.2 1465.54 1007.32 1467.09 C 1007.12 1465.42 1007.23 1462.62 1007.23 1460.84 z" fill="rgb(11,15,2)" transform="translate(0,0)"></path>
<path d="M 1152.21 1462.97 C 1161.2 1462.58 1200.99 1461.98 1208.12 1463.51 L 1208.01 1463.57 L 1209.06 1463.85 C 1209.07 1463.96 1209.07 1464.07 1209.08 1464.19 C 1208.1 1465.1 1163.09 1465.41 1157 1465.23 C 1156 1465.19 1155 1465.14 1154 1465.08 L 1152.21 1462.97 z" fill="rgb(82,95,32)" transform="translate(0,0)"></path>
<path d="M 1338.51 1468.73 C 1344.55 1467.77 1363.8 1467.79 1370.34 1468.12 C 1366.52 1468.77 1356.11 1468.03 1355.3 1470.63 C 1348.53 1470.08 1345.12 1469.59 1338.51 1468.73 z" fill="rgb(106,124,44)" transform="translate(0,0)"></path>
<path d="M 1335.65 1211.6 C 1339.43 1203.47 1341.77 1198.42 1346.65 1190.72 L 1347.64 1192.53 C 1346.02 1196.51 1338.15 1208.17 1335.65 1211.6 z" fill="rgb(82,95,32)" transform="translate(0,0)"></path>
<path d="M 1093.55 771.493 C 1093.11 769.747 1090.76 763.141 1091.76 761.796 C 1092.01 761.896 1092.26 761.995 1092.51 762.095 L 1092.2 761.838 C 1092.01 762.561 1092.04 762.205 1092.09 762.904 L 1093.3 763.44 C 1093.86 765.415 1094.46 767.357 1094.89 769.368 L 1093.55 771.493 z" fill="rgb(106,124,44)" transform="translate(0,0)"></path>
<path d="M 1093.55 771.493 L 1094.89 769.368 C 1095.64 771.6 1096.45 773.851 1097.16 776.091 L 1095.54 778.562 C 1094.85 775.383 1094.7 774.513 1093.55 771.493 z" fill="rgb(44,59,19)" transform="translate(0,0)"></path>
<path d="M 857.562 661.76 C 897.431 660.491 930.733 691.878 931.824 731.752 C 932.915 771.627 901.379 804.788 861.5 805.7 C 821.873 806.607 788.967 775.313 787.883 735.691 C 786.798 696.068 817.944 663.022 857.562 661.76 z" fill="rgb(27,27,31)" transform="translate(0,0)"></path>
<path d="M 857.97 671.271 C 858.16 671.33 861.769 672.226 861.806 672.672 C 863.247 690.026 862.15 708.875 862.314 726.562 C 868.297 733.309 871.097 734.553 863.539 742.621 C 860.526 742.74 858.5 743.041 855.978 741.05 C 854.405 739.803 853.375 737.996 853.103 736.008 C 852.616 732.244 855.154 729.405 857.362 726.685 C 857.665 710.296 856.844 686.78 857.97 671.271 z" fill="rgb(244,244,243)" transform="translate(0,0)"></path>
<path d="M 870.84 733 C 884.287 732.93 899.847 732.659 913.303 733.583 C 914.201 733.645 914.152 739.556 914.176 739.992 C 900.688 739.456 885.11 739.86 871.643 738.614 C 870.931 738.548 870.872 733.462 870.84 733 z" fill="rgb(244,244,243)" transform="translate(0,0)"></path>
<path d="M 970.014 460.131 C 968.421 459.869 968.818 460.027 967.631 459.459 L 967.759 459.238 C 969.208 458.524 971.633 458.232 973.223 457.982 C 972.404 458.633 970.86 459.583 970.014 460.131 z" fill="rgb(82,95,32)" transform="translate(0,0)"></path>
</svg>
